<?xml version="1.0" encoding="utf-8"?>
<!-- Generator: Adobe Illustrator 21.0.0, SVG Export Plug-In . SVG Version: 6.00 Build 0)  -->
<svg version="1.1" id="_x5F_IMG_x5F_0288_xA0_Image_1_"
	 xmlns="http://www.w3.org/2000/svg" xmlns:xlink="http://www.w3.org/1999/xlink" x="0px" y="0px" viewBox="0 0 5184 3456"
	 style="enable-background:new 0 0 5184 3456;" xml:space="preserve">
<style type="text/css">
	.st0{opacity:0.31;fill:#C7363B;}
	.st1{fill:#C7363B;}
</style>
<polygon class="st0" points="81,2470.1 3936.7,678.6 4143.5,354.2 3941.4,354.2 240.8,2277.3 "/>
<polygon class="st0" points="0,2695.8 2298.7,2493.3 3292.5,2390.2 3311.3,2470.1 2798.8,2587.7 1890,2684 0,2860.4 "/>
<path class="st0" d="M0,3049.3V3332l2394-119l569-37l537-50c0,0,11.5-3.3,15.3-7s9.3-15.3,5.8-29.3c-1.7-7-54-191.9-109-377.8
	c-55.7-188.3-114-377.3-114-377.3l-502,106.7l496.5-51.2l18.8,79.9l-512.5,117.6L1226.7,2746L190,2943.3L0,3049.3"/>
<polygon class="st1" points="3507,3456 0,3456 0,3332 2397,3213 2979,3176 3500,3126 3515.3,3119 3523,3098 3528,3420 "/>
<g>
	<path class="st1" d="M3782,3456l-342.2-649.3c43.6,149.3,79.7,277.2,81.2,283c1,3.8,1.2,7.5,1.1,10.8l0.9-2.6l5,322l-21,36H3782"/>
	<polygon class="st1" points="3398.4,3135.5 3398.5,3135.7 3500,3126 	"/>
</g>
<g>
	<path class="st1" d="M3463.4,2888c0-0.2-0.1-0.3-0.1-0.5C3463.3,2887.6,3463.4,2887.8,3463.4,2888z"/>
	<path class="st1" d="M3465.3,2894.6c-0.1-0.2-0.1-0.4-0.2-0.6C3465.2,2894.2,3465.3,2894.4,3465.3,2894.6z"/>
	<path class="st1" d="M3461.7,2882c-0.1-0.3-0.2-0.7-0.3-1C3461.5,2881.3,3461.6,2881.7,3461.7,2882z"/>
	<path class="st1" d="M3467.3,2901.2c-0.1-0.3-0.2-0.6-0.3-0.9C3467.1,2900.6,3467.2,2900.9,3467.3,2901.2z"/>
	<path class="st1" d="M3459.8,2875.3c-0.1-0.3-0.2-0.7-0.3-1C3459.6,2874.6,3459.7,2874.9,3459.8,2875.3z"/>
	<path class="st1" d="M3474.4,2925.8c-0.1-0.4-0.2-0.7-0.3-1.1C3474.2,2925.1,3474.3,2925.5,3474.4,2925.8z"/>
	<path class="st1" d="M3468.9,2907c0,0,0-0.1,0-0.1C3468.9,2906.9,3468.9,2906.9,3468.9,2907z"/>
	<path class="st1" d="M3476.1,2932c-0.1-0.4-0.2-0.7-0.3-1.1C3475.9,2931.3,3476,2931.7,3476.1,2932z"/>
	<path class="st1" d="M3470.9,2913.9c-0.1-0.5-0.3-0.9-0.4-1.4C3470.6,2913,3470.8,2913.4,3470.9,2913.9z"/>
	<path class="st1" d="M3442,2814.3c-0.2-0.5-0.3-1.1-0.5-1.6C3441.7,2813.3,3441.9,2813.8,3442,2814.3z"/>
	<path class="st1" d="M3444.1,2821.3c-0.1-0.3-0.2-0.7-0.3-1C3443.9,2820.6,3444,2820.9,3444.1,2821.3z"/>
	<path class="st1" d="M3448.1,2835.1c-0.1-0.5-0.3-0.9-0.4-1.4C3447.8,2834.2,3448,2834.6,3448.1,2835.1z"/>
	<path class="st1" d="M3457.8,2868.4c-0.1-0.3-0.2-0.6-0.3-0.9C3457.6,2867.8,3457.7,2868.1,3457.8,2868.4z"/>
	<path class="st1" d="M3477.9,2938c-0.1-0.3-0.2-0.6-0.3-0.9C3477.7,2937.4,3477.8,2937.7,3477.9,2938z"/>
	<path class="st1" d="M3450.1,2842.2c-0.1-0.5-0.3-0.9-0.4-1.4C3449.9,2841.2,3450,2841.7,3450.1,2842.2z"/>
	<path class="st1" d="M3451.9,2848.2c0-0.1,0-0.2-0.1-0.2C3451.8,2848,3451.9,2848.1,3451.9,2848.2z"/>
	<path class="st1" d="M3455.8,2861.6C3455.8,2861.6,3455.8,2861.5,3455.8,2861.6C3455.8,2861.5,3455.8,2861.6,3455.8,2861.6z"/>
	<path class="st1" d="M3454,2855.5c-0.1-0.5-0.3-0.9-0.4-1.4C3453.8,2854.6,3453.9,2855.1,3454,2855.5z"/>
	<path class="st1" d="M3512.2,3058.1C3512.2,3058.1,3512.2,3058.1,3512.2,3058.1C3512.2,3058.1,3512.2,3058.1,3512.2,3058.1z"/>
	<path class="st1" d="M3501.6,3020.9c-0.1-0.3-0.2-0.6-0.2-0.8C3501.4,3020.3,3501.5,3020.6,3501.6,3020.9z"/>
	<path class="st1" d="M3505.2,3033.6c-0.1-0.4-0.2-0.7-0.3-1.1C3505,3032.9,3505.1,3033.2,3505.2,3033.6z"/>
	<path class="st1" d="M3506.2,3037.3c0-0.1-0.1-0.2-0.1-0.4C3506.2,3037,3506.2,3037.1,3506.2,3037.3z"/>
	<path class="st1" d="M3502.7,3024.8C3502.7,3024.8,3502.7,3024.8,3502.7,3024.8C3502.7,3024.8,3502.7,3024.8,3502.7,3024.8z"/>
	<path class="st1" d="M3507.3,3041.1c0-0.2-0.1-0.3-0.1-0.5C3507.2,3040.7,3507.3,3040.9,3507.3,3041.1z"/>
	<path class="st1" d="M3376.5,2593c11.5,38.5,23.6,78.8,35.5,119c9.4,31.9,18.8,63.8,27.8,94.7L3782,3456h63L3376.5,2593z"/>
	<path class="st1" d="M3511.3,3055.1c0-0.1,0-0.2-0.1-0.3C3511.2,3054.9,3511.3,3055,3511.3,3055.1z"/>
	<path class="st1" d="M3508.4,3044.9c-0.1-0.2-0.1-0.4-0.2-0.6C3508.3,3044.5,3508.4,3044.7,3508.4,3044.9z"/>
	<path class="st1" d="M3509.5,3048.9c-0.1-0.4-0.2-0.8-0.3-1.2C3509.3,3048.1,3509.4,3048.5,3509.5,3048.9z"/>
	<path class="st1" d="M3492.2,2987.9c-0.1-0.5-0.3-0.9-0.4-1.4C3491.9,2987,3492,2987.4,3492.2,2987.9z"/>
	<path class="st1" d="M3490.6,2982.4c-0.1-0.2-0.1-0.4-0.2-0.6C3490.5,2982,3490.5,2982.2,3490.6,2982.4z"/>
	<path class="st1" d="M3486,2966.2c0-0.1-0.1-0.3-0.1-0.4C3485.9,2965.9,3485.9,2966.1,3486,2966.2z"/>
	<path class="st1" d="M3489.1,2977.2c-0.1-0.4-0.2-0.7-0.3-1.1C3488.9,2976.5,3489,2976.9,3489.1,2977.2z"/>
	<path class="st1" d="M3481,2949.1C3481,2949.1,3481,2949.1,3481,2949.1C3481,2949.1,3481,2949.1,3481,2949.1z"/>
	<path class="st1" d="M3499.1,3012.3c-0.1-0.4-0.2-0.7-0.3-1.1C3498.9,3011.5,3499,3011.9,3499.1,3012.3z"/>
	<path class="st1" d="M3479.4,2943.4c-0.1-0.2-0.1-0.4-0.2-0.5C3479.3,2943.1,3479.4,2943.3,3479.4,2943.4z"/>
	<path class="st1" d="M3496.3,3002.3c0-0.1-0.1-0.2-0.1-0.4C3496.2,3002,3496.2,3002.1,3496.3,3002.3z"/>
	<path class="st1" d="M3493.6,2992.8c-0.1-0.4-0.2-0.9-0.4-1.3C3493.3,2991.9,3493.4,2992.3,3493.6,2992.8z"/>
</g>
<polygon class="st1" points="4766,3456 3845,3456 3377,2593 3298,2335 3036.7,2390.2 590,2258 1040,2045 4144,2289 4159,2322 
	4175,2327 4628,2366 4818,2604 4626,2912 4924,3226 4924,3303 "/>
<polygon class="st1" points="4699,2156 4628,2366 4818,2604 4959,2392 "/>
<polygon class="st1" points="4191,1698 4699,2156 4628,2366 4175,2327 4159,2322 4144,2289 "/>
<polygon class="st1" points="4975,2404 4959,2392 4818,2604 4626,2912 4924,3226 "/>
<polygon class="st1" points="5184,2702 4970,2484.6 4924,3226 4924,3303 4766,3456 5184,3456 "/>
<polygon class="st1" points="5184,1698 5184,2702 4970,2485 4975,2404 4959,2392 4191,1698 3821,1351 3821,1304 4067,1279 "/>
</svg>
