<?xml version="1.0" encoding="utf-8"?>
<!-- Generator: Adobe Illustrator 21.0.0, SVG Export Plug-In . SVG Version: 6.00 Build 0)  -->
<svg version="1.1" id="_x5F_IMG_x5F_0288_xA0_Image_1_"
	 xmlns="http://www.w3.org/2000/svg" xmlns:xlink="http://www.w3.org/1999/xlink" x="0px" y="0px" viewBox="0 0 5184 3456"
	 style="enable-background:new 0 0 5184 3456;" xml:space="preserve">
<style type="text/css">
	.st0{opacity:0.26;fill:#C0111A;}
</style>
<polygon class="st0" points="3923,333.5 3917,343 3917.5,366.6 2397.3,1136 240.8,2277.3 81,2470.1 85.5,2484 1858,1657.7 
	3250.5,1026 3931.5,707.5 3950.4,673.2 4129.5,348.8 "/>
<polygon class="st0" points="0,2695.8 2298.7,2493.3 3292.5,2390.2 3311.3,2470.1 2798.8,2587.7 1890,2684 0,2860.4 "/>
<path class="st0" d="M0,3049.3l190-106L1226.7,2746l663.3-62l908.8-96.3l512.5-117.6l-18.8-79.9l-496.5,51.2l502-106.7
	c0,0,58.3,189.1,114,377.3c55,185.8,107.3,370.8,109,377.8c3.5,14-2,25.5-5.8,29.3s-15.3,7-15.3,7l-537,50l-569,37L0,3332V3049.3z"
	/>
<polygon class="st0" points="3507,3456 0,3456 0,3332 2397,3213 2979,3176 3500,3126 3515.3,3119 3523,3098 3528,3420 "/>
<path class="st0" d="M3782,3456l-342.2-649.3c43.6,149.3,79.7,277.2,81.2,283c1,3.8,1.2,7.5,1.1,10.8l0.9-2.6l5,322l-21,36H3782"/>
<path class="st0" d="M3376.5,2593c11.5,38.5,23.6,78.8,35.5,119c9.4,31.9,18.8,63.8,27.8,94.7L3782,3456h63L3376.5,2593z"/>
<polygon class="st0" points="4766,3456 3845,3456 3376.5,2593 3298,2335 2962.3,2405.9 547.9,2268.4 1034.7,2041.5 4144,2289 
	4159,2322 4175,2327 4628,2366 4818,2604 4626,2912 4924,3226 4924,3303 "/>
<polygon class="st0" points="4699,2156 4628,2366 4818,2604 4959,2392 "/>
<polygon class="st0" points="4191,1698 4699,2156 4628,2366 4175,2327 4159,2322 4144,2289 "/>
<polygon class="st0" points="4975,2404 4959,2392 4818,2604 4626,2912 4924,3226 "/>
<polygon class="st0" points="5184,2702 4970,2484.6 4924,3226 4924,3303 4766,3456 5184,3456 "/>
<polygon class="st0" points="5184,1698 5184,2702 4970,2485 4975,2404 4959,2392 4191,1698 3821,1351 3821,1304 4067,1279 "/>
<polygon class="st0" points="5184,76 5184,1698 4067,1279 4031,989 "/>
<polygon class="st0" points="5184,0 5184,76 4031,989 3787,1031 3775,991 4322,0 "/>
<polygon class="st0" points="3880.5,245 3917,343 3917.5,366.6 2397.3,1136 240.8,2277.3 0,2404.5 0,2283.5 1828,1291.3 
	2887.3,742.7 "/>
<polygon class="st0" points="0,2461 135.4,2404.5 81,2470.1 85.5,2484 547.9,2268.4 2962.3,2405.9 2796,2441.3 2298.7,2493.3 
	0,2695.8 "/>
<polygon class="st0" points="0,2461 135.4,2404.5 240.8,2277.3 0,2404.5 "/>
<polygon class="st0" points="0,2860.4 1226.7,2746 190,2943.3 0,3049.3 "/>
<polygon class="st0" points="4144,2289 1034.7,2041.5 1403.9,1869.4 4160.7,2078.8 "/>
<polygon class="st0" points="4174.7,1903.1 4160.7,2078.8 1403.9,1869.4 1604.6,1775.8 "/>
<polygon class="st0" points="4174.7,1903.1 1604.6,1775.8 1985.8,1599.7 4191,1698 "/>
<polygon class="st0" points="2276.6,1467.8 4003.6,1522.3 4191,1698 1985.8,1599.7 "/>
<polyline class="st0" points="2276.6,1467.8 2693.8,1278.5 3821,1304 3821,1351 4003.6,1522.3 "/>
<polygon class="st0" points="2857.9,1204.1 3327.5,1225.5 3260,1037 3262.7,1020.3 "/>
<polygon class="st0" points="3348,980.4 3327.5,1225.5 3260,1037 3262.7,1020.3 "/>
<polygon class="st0" points="4031,989 4067,1279 3821,1304 2693.8,1278.5 2857.9,1204.1 3327.5,1225.5 3348,980.4 3931.5,707.5 
	3775,991 3787,1031 "/>
<polygon class="st0" points="3639,0 3775,297.9 2887.3,742.7 1828,1291.3 0,2283.5 0,2133.6 1737.6,1020.3 2766.6,398.2 3456.5,0 
	"/>
<polygon class="st0" points="3304.7,0 3456.5,0 2766.6,398.2 1737.6,1020.3 0,2133.6 0,2050.5 1712,942 2230,624 2237,633.3 "/>
<polygon class="st0" points="3130,0 2201,552 2197.3,575 2230,624 2237,633.3 3304.7,0 "/>
<polygon class="st0" points="3014.7,0 3130,0 2201,552 2197.3,575 2230,624 1712,942 0,2050.5 0,1956 1378.5,1027.5 1958.8,652 "/>
<polygon class="st0" points="2288.6,448.3 2275,15 2265.9,15 2264,0 3014.7,0 "/>
<polygon class="st0" points="1868,710.7 1663.3,439.3 1658.9,412.8 2286.4,378.6 2288.6,448.3 "/>
<polygon class="st0" points="1828.5,131.1 1658.9,412.8 2286.9,380.4 2277.7,88.5 "/>
<polygon class="st0" points="1085.3,0 1092.7,169.3 2276.1,50.7 2275,15 2265.9,15 2264,0 "/>
<polygon class="st0" points="1685.7,368.2 1270.7,404.7 1261.3,386.7 1246.7,196 1106,184 1092.7,169.3 2276.1,50.7 2277.7,88.5 
	1828.5,131.1 "/>
<polygon class="st0" points="1658.9,412.8 1685.7,368.2 1270.7,404.7 1261.3,386.7 1246.7,196 1106,184 732,227.7 754,360 
	694,388.7 382.7,414.7 327,527 419,601.3 419,626.7 369,719.3 226.5,730.5 226.5,749 646,1426 739,1264.5 1030.6,1261.9 1868,710.7 
	1663.3,439.3 "/>
<polygon class="st0" points="698,0 722.7,184 732,227.7 1106,184 1092.7,169.3 1085.3,0 "/>
<polygon class="st0" points="0,74 694,388.7 754,360 732,227.7 722.7,184 698,0 0,0 "/>
<polygon class="st0" points="0,290.2 232,282 377,395 382.7,414.7 694,388.7 0,74 "/>
<polygon class="st0" points="142,285.2 226.5,730.5 226.5,749 0,756.7 0,290.2 "/>
<polygon class="st0" points="419,601.3 205.1,617.5 226.5,730.5 369,719.3 419,626.7 "/>
<polygon class="st0" points="327,527 188.4,530 205.1,617.5 419,601.3 "/>
<polygon class="st0" points="377,395 382.7,414.7 327,527 188.4,530 162.8,395 "/>
<polygon class="st0" points="142,285.2 232,282 377,395 162.8,395 "/>
<polygon class="st0" points="0,1956 689.3,1491.7 646,1426 226.5,749 0,756.7 "/>
<polygon class="st0" points="1030.6,1261.9 689.3,1491.7 646,1426 739,1264.5 "/>
<polygon class="st0" points="4322,0 4129.5,348.8 3923,333.5 3917,343 3880.5,245 3775,297.9 3639,0 "/>
</svg>
